<svg xmlns="http://www.w3.org/2000/svg" xmlns:xlink="http://www.w3.org/1999/xlink" viewBox="8.95 6 22.17 18.8">
  <defs>
    <filter id="home" x="0" y="0" width="40.123" height="36.794" filterUnits="userSpaceOnUse">
      <feOffset dy="3" input="SourceAlpha"/>
      <feGaussianBlur stdDeviation="3" result="blur"/>
      <feFlood flood-opacity="0.161"/>
      <feComposite operator="in" in2="blur"/>
      <feComposite in="SourceGraphic"/>
    </filter>
  </defs>
  <g id="home-2" data-name="home" transform="translate(9 6)">
    <g transform="matrix(1, 0, 0, 1, -9, -6)" filter="url(#home)">
      <path id="home-3" data-name="home" d="M23.877,13.063a1.1,1.1,0,0,1-1.55.144l-.4-.3v7.2a2.214,2.214,0,0,1-2.214,2.214H16.393a1.107,1.107,0,0,1-1.107-1.107V16.783a1.107,1.107,0,0,0-1.107-1.107H11.964a1.107,1.107,0,0,0-1.107,1.107v4.428A1.107,1.107,0,0,1,9.75,22.318H6.429A2.214,2.214,0,0,1,4.214,20.1v-7.2l-.4.332a1.108,1.108,0,1,1-1.417-1.7L11,4.295a3.166,3.166,0,0,1,4.141,0l8.6,7.24A1.107,1.107,0,0,1,23.877,13.063Z" transform="translate(7 2.48)" fill="#f5f5f5"/>
    </g>
  </g>
</svg>