<svg xmlns="http://www.w3.org/2000/svg" xmlns:xlink="http://www.w3.org/1999/xlink" viewBox="9 6 16.69 16.69">
  <defs>
    <filter id="Path_127" x="0" y="0" width="34.687" height="34.687" filterUnits="userSpaceOnUse">
      <feOffset dy="3" input="SourceAlpha"/>
      <feGaussianBlur stdDeviation="3" result="blur"/>
      <feFlood flood-opacity="0.161"/>
      <feComposite operator="in" in2="blur"/>
      <feComposite in="SourceGraphic"/>
    </filter>
  </defs>
  <g id="logout" transform="translate(6.219 3.219)">
    <path id="Path_126" data-name="Path 126" d="M0,0H22.249V22.249H0Z" fill="none"/>
    <g transform="matrix(1, 0, 0, 1, -6.22, -3.22)" filter="url(#Path_127)">
      <path id="Path_127-2" data-name="Path 127" d="M9.573,14.671l1.307,1.307,4.635-4.635L10.88,6.708,9.573,8.015l2.392,2.4H3V12.27h8.964ZM17.833,3H4.854A1.854,1.854,0,0,0,3,4.854V8.562H4.854V4.854H17.833V17.833H4.854V14.125H3v3.708a1.854,1.854,0,0,0,1.854,1.854H17.833a1.86,1.86,0,0,0,1.854-1.854V4.854A1.86,1.86,0,0,0,17.833,3Z" transform="translate(6 3)" fill="#f5f5f5"/>
    </g>
  </g>
</svg>