<svg xmlns="http://www.w3.org/2000/svg" xmlns:xlink="http://www.w3.org/1999/xlink" viewBox="8.99 6 25.32 22.47">
  <defs>
    <filter id="Path_1053" x="0" y="0" width="43.316" height="40.468" filterUnits="userSpaceOnUse">
      <feOffset dy="3" input="SourceAlpha"/>
      <feGaussianBlur stdDeviation="3" result="blur"/>
      <feFlood flood-opacity="0.161"/>
      <feComposite operator="in" in2="blur"/>
      <feComposite in="SourceGraphic"/>
    </filter>
  </defs>
  <g id="Layer_1" data-name="Layer 1" transform="translate(9 6)">
    <g transform="matrix(1, 0, 0, 1, -9, -6)" filter="url(#Path_1053)">
      <path id="Path_1053-2" data-name="Path 1053" d="M12.1,10.993l-3.316-.406a.183.183,0,0,0-.182.1.2.2,0,0,0,.015.211,2.5,2.5,0,0,0,3.554.409.173.173,0,0,0,.067-.179A.167.167,0,0,0,12.1,10.993Zm5.69.313a2.5,2.5,0,0,0,3.554-.413.2.2,0,0,0,.02-.215.183.183,0,0,0-.187-.1l-3.316.411a.167.167,0,0,0-.143.131A.173.173,0,0,0,17.79,11.306Zm7.556-.073c0,6.2-4.639,11.234-10.36,11.234C9.8,22.468,5.5,18.339,4.739,12.95a4.059,4.059,0,0,1-2.775,2.678.379.379,0,0,1-.331-.04.4.4,0,0,1-.18-.289,3.906,3.906,0,0,1,1.76-4.105A4.191,4.191,0,0,1,.1,9.443a.372.372,0,0,1-.066-.307A.361.361,0,0,1,.23,8.892a3.8,3.8,0,0,1,4.55.322C5.652,3.974,9.886,0,14.986,0,20.707,0,25.346,5.029,25.346,11.234ZM20.47,19.243s-8.45,3.452-13.735-3.583c0,0,2.077,4.97,7.261,5.56a8.712,8.712,0,0,0,6.474-1.977Zm3.4-10.213a64.71,64.71,0,0,1-8.883.531h0A73.156,73.156,0,0,1,6.092,9.01a9.084,9.084,0,0,0-.233,2.224h0A12.858,12.858,0,0,0,6.1,13.44a84.115,84.115,0,0,1,8.888-.424h0a86.943,86.943,0,0,1,8.866.44h.026a9.063,9.063,0,0,0,.233-2.22h0a12.907,12.907,0,0,0-.242-2.208Zm-.757-2.081s-2.077-4.972-7.261-5.56A8.712,8.712,0,0,0,9.375,3.366S17.829-.082,23.112,6.947Z" transform="translate(8.97 6)" fill="#f5f5f5"/>
    </g>
  </g>
</svg>