<svg xmlns="http://www.w3.org/2000/svg" xmlns:xlink="http://www.w3.org/1999/xlink" viewBox="9 6 19.23 19.23">
  <defs>
    <filter id="Path_2617" x="0" y="0" width="37.228" height="37.228" filterUnits="userSpaceOnUse">
      <feOffset dy="3" input="SourceAlpha"/>
      <feGaussianBlur stdDeviation="3" result="blur"/>
      <feFlood flood-opacity="0.161"/>
      <feComposite operator="in" in2="blur"/>
      <feComposite in="SourceGraphic"/>
    </filter>
  </defs>
  <g transform="matrix(1, 0, 0, 1, 0, 0)" filter="url(#Path_2617)">
    <path id="Path_2617-2" data-name="Path 2617" d="M19.306,2H3.923A1.928,1.928,0,0,0,2,3.923V21.228l3.846-3.846h13.46a1.928,1.928,0,0,0,1.923-1.923V3.923A1.928,1.928,0,0,0,19.306,2ZM5.846,13.537V11.162L12.46,4.548a.476.476,0,0,1,.683,0l1.7,1.7a.476.476,0,0,1,0,.683l-6.624,6.6Zm10.576,0H10.172l1.923-1.923h4.326a.961.961,0,1,1,0,1.923Z" transform="translate(7 4)" fill="#f5f5f5"/>
  </g>
</svg>