<svg xmlns="http://www.w3.org/2000/svg" xmlns:xlink="http://www.w3.org/1999/xlink" viewBox="9 6 17.78 17.14">
  <defs>
    <filter id="Path_1053" x="0" y="0" width="35.78" height="35.142" filterUnits="userSpaceOnUse">
      <feOffset dy="3" input="SourceAlpha"/>
      <feGaussianBlur stdDeviation="3" result="blur"/>
      <feFlood flood-opacity="0.161"/>
      <feComposite operator="in" in2="blur"/>
      <feComposite in="SourceGraphic"/>
    </filter>
  </defs>
  <g id="support" transform="translate(5.461 2.461)">
    <rect id="Rectangle_886" data-name="Rectangle 886" width="24.884" height="24.246" transform="translate(-0.013 -0.013)" fill="none"/>
    <g transform="matrix(1, 0, 0, 1, -5.46, -2.46)" filter="url(#Path_1053)">
      <path id="Path_1053-2" data-name="Path 1053" d="M18.8,3H4.976A1.947,1.947,0,0,0,3,4.9V18.237a1.947,1.947,0,0,0,1.976,1.9H18.8a1.947,1.947,0,0,0,1.976-1.9V4.9A1.947,1.947,0,0,0,18.8,3ZM11.9,17.285a1.218,1.218,0,0,1-1.245-1.2,1.2,1.2,0,0,1,1.245-1.19,1.19,1.19,0,0,1,1.235,1.19A1.215,1.215,0,0,1,11.9,17.285Zm2.973-7.047c-.751,1.057-1.462,1.39-1.847,2.067a1.282,1.282,0,0,0-.188.6.877.877,0,0,1-.889.743H11.89a.848.848,0,0,1-.869-.914,2.339,2.339,0,0,1,.3-.981c.484-.829,1.4-1.324,1.936-2.057A1.416,1.416,0,0,0,11.9,7.476a1.7,1.7,0,0,0-1.452.752.917.917,0,0,1-1.087.343h0a.818.818,0,0,1-.4-1.248A3.5,3.5,0,0,1,11.88,5.857,3.368,3.368,0,0,1,14.853,7.3,2.785,2.785,0,0,1,14.873,10.238Z" transform="translate(6 3)" fill="#f5f5f5"/>
    </g>
  </g>
</svg>